<?xml version="1.0" encoding="utf-8"?>
<!-- Generator: Adobe Illustrator 26.5.0, SVG Export Plug-In . SVG Version: 6.00 Build 0)  -->
<svg version="1.1" id="レイヤー_1" xmlns="http://www.w3.org/2000/svg" xmlns:xlink="http://www.w3.org/1999/xlink" x="0px"
	 y="0px" viewBox="0 0 25 20" style="enable-background:new 0 0 25 20;" xml:space="preserve">
<style type="text/css">
	.st0{fill:#4A98FF;}
</style>
<g id="グループ_1117" transform="translate(0)">
	<path id="パス_706" class="st0" d="M7.9,20c-2.8,0-5.5-0.8-7.9-2.3c0.4,0,0.8,0.1,1.2,0.1c2.3,0,4.6-0.8,6.4-2.2
		c-2.2,0-4.1-1.4-4.8-3.5c0.8,0.1,1.6,0.1,2.3-0.1C2.7,11.6,1,9.5,1,7.1c0,0,0,0,0-0.1c0.7,0.4,1.5,0.6,2.3,0.6
		C1.1,6.2,0.4,3.2,1.7,0.9C4.3,4.1,8.2,6,12.3,6.2c-0.6-2.7,1.1-5.4,3.8-6.1c1.8-0.4,3.7,0.1,4.9,1.5c1.1-0.2,2.2-0.6,3.3-1.2
		c-0.4,1.2-1.2,2.2-2.2,2.8c1-0.1,2-0.4,2.9-0.8c-0.7,1-1.6,1.9-2.6,2.6c0,0.2,0,0.4,0,0.7c0.1,7.9-6.4,14.3-14.4,14.4
		C8,20,7.9,20,7.9,20"/>
</g>
</svg>
